<svg width="400" height="400" viewBox="0 0 400 400" fill="none" xmlns="http://www.w3.org/2000/svg">
<path fill-rule="evenodd" clip-rule="evenodd" d="M200 395C307.696 395 395 307.696 395 200C395 92.3045 307.696 5 200 5C92.3045 5 5 92.3045 5 200C5 307.696 92.3045 395 200 395ZM200 400C310.457 400 400 310.457 400 200C400 89.5431 310.457 0 200 0C89.5431 0 0 89.5431 0 200C0 310.457 89.5431 400 200 400ZM344.425 213C344.806 208.717 345 204.381 345 200C345 119.919 280.081 55 200 55C119.919 55 55 119.919 55 200C55 205.792 55.3396 211.505 56 217.119V195H76V177H96V200H116V213H135V232H155V226H175V261H192V237H212V250H231V218H251V195H271V218H291V177H311V195H331V213H344.425ZM200 350C282.843 350 350 282.843 350 200C350 117.157 282.843 50 200 50C117.157 50 50 117.157 50 200C50 282.843 117.157 350 200 350Z" fill="black"/>
<path d="M59.3238 120.431L42.044 111.668L54.6124 123.824L52.7614 127.119L35.2923 123.69L52.3958 132.767L50.9326 135.372L30.108 124.324L32.3292 120.369L51.2671 124.196L37.5297 111.109L39.7509 107.154L60.787 117.826L59.3238 120.431Z" fill="black"/>
<path d="M70.8182 93.25C72.8803 94.7399 74.0667 96.396 74.3774 98.2182C74.6687 100.026 74.0384 101.923 72.4865 103.909C70.9494 105.875 69.2394 106.992 67.3566 107.259C65.4885 107.507 63.5137 106.879 61.4322 105.375L48.301 95.8876L50.1855 93.4767L63.6376 103.196C64.8827 104.096 66.0798 104.472 67.2289 104.326C68.3734 104.147 69.3964 103.481 70.298 102.327C71.2144 101.155 71.5954 100.025 71.4412 98.9372C71.2675 97.8353 70.5581 96.8346 69.3131 95.935L55.8609 86.2156L57.7454 83.8047L70.8182 93.25Z" fill="black"/>
<path d="M71.8451 68.1304C72.8017 67.2561 74.1857 66.251 75.997 65.1152L77.8432 67.0828C76.1204 68.1376 74.7542 69.1265 73.7444 70.0495C72.7169 70.9886 72.1671 71.8648 72.0948 72.6781C72.0402 73.4753 72.4097 74.2747 73.2032 75.0764L73.8616 75.7417C74.2837 76.1681 74.6745 76.4607 75.034 76.6194C75.3944 76.7449 75.818 76.7638 76.3049 76.6762C76.7748 76.5715 77.4038 76.3377 78.1919 75.9748L81.4482 74.5092C83.0234 73.8167 84.3709 73.5759 85.4907 73.7869C86.6283 73.9818 87.8133 74.7018 89.0458 75.947L89.5269 76.4331C91.0295 77.9513 91.6916 79.5066 91.5133 81.0992C91.3527 82.6755 90.236 84.4109 88.1634 86.3053C87.1536 87.2283 85.6916 88.2397 83.7773 89.3396L81.8805 87.3209C83.6885 86.3181 85.1151 85.3391 86.1603 84.3837C87.4889 83.1693 88.2421 82.1235 88.4198 81.2463C88.5807 80.352 88.2559 79.4955 87.4455 78.6767L86.6098 77.8324C86.0189 77.2353 85.4298 76.9128 84.8425 76.8649C84.256 76.7837 83.5076 76.9479 82.5972 77.3576L78.9992 78.9894C77.3886 79.7143 76.0402 79.9883 74.9541 79.8114C73.8512 79.6174 72.675 78.8893 71.4257 77.627L71.1471 77.3456C69.6783 75.8615 68.9799 74.3718 69.052 72.8765C69.1248 71.3478 70.0559 69.7658 71.8451 68.1304Z" fill="black"/>
<path d="M90.5655 54.1L105.253 72.5473L102.784 74.3557L88.097 55.9083L90.5655 54.1Z" fill="black"/>
<path d="M108.823 41.242C109.616 40.7443 110.524 40.2875 111.547 39.8716C112.577 39.4232 113.18 39.1578 113.356 39.0755L114.821 41.3413C112.816 42.1475 111.325 42.8569 110.349 43.4695C108.967 44.3373 108.161 45.2398 107.931 46.1771C107.701 47.1143 108.027 48.2264 108.909 49.5134L114.727 58.0075C115.609 59.2945 116.534 60.0301 117.504 60.2144C118.48 60.3661 119.669 60.0017 121.071 59.1212C122.047 58.5086 123.321 57.4824 124.892 56.0426L126.52 58.2911C126.371 58.413 125.876 58.8368 125.036 59.5624C124.23 60.2951 123.431 60.9103 122.638 61.408C120.3 62.8756 118.301 63.437 116.641 63.0922C114.98 62.7473 113.445 61.5453 112.034 59.4861L106.439 51.3187C105.028 49.2596 104.489 47.4322 104.82 45.8367C105.152 44.2412 106.486 42.7096 108.823 41.242Z" fill="black"/>
<path d="M162.85 17.259C165.564 16.4519 167.737 16.407 169.367 17.1241C171.013 17.8113 172.129 19.1697 172.713 21.1992L172.952 22.0295C173.577 24.1973 173.414 26.0609 172.465 27.6201C171.515 29.1793 169.741 30.3453 167.141 31.1182C166.106 31.426 164.975 31.6621 163.749 31.8264L166.459 41.2359L163.526 42.1079L156.93 19.2069C158.852 18.5102 160.825 17.8609 162.85 17.259ZM163.498 19.7703C162.486 20.0712 161.503 20.3884 160.551 20.7218L163.021 29.301C164.455 29.0752 165.54 28.8528 166.276 28.6339C169.589 27.649 170.823 25.6921 169.98 22.7631L169.81 22.175C169.432 20.8605 168.735 20.0034 167.721 19.6039C166.7 19.1813 165.293 19.2368 163.498 19.7703Z" fill="black"/>
<path d="M203.244 13.42V16.192H193.884V23.644H202.524V26.38H193.884V34.228H203.244V37H190.824V13.42H203.244Z" fill="black"/>
<path d="M231.549 17.2796C234.284 18.0122 236.163 19.0867 237.184 20.503C238.205 21.9193 238.465 23.5915 237.965 25.5197L237.739 26.3909C237.389 27.7383 236.708 28.8353 235.695 29.682C234.688 30.5055 233.435 30.9401 231.935 30.9858L235.117 43.0926L231.813 42.2078L228.851 30.8307C228.66 30.8043 228.286 30.7166 227.73 30.5676C226.802 30.3192 225.896 30.0391 225.01 29.7273L222.424 39.6934L219.468 38.9018L225.462 15.7986C228.082 16.401 230.111 16.8947 231.549 17.2796ZM230.828 19.77C230.063 19.5651 229.049 19.3182 227.785 19.0295L225.651 27.2532C226.873 27.7046 227.901 28.0421 228.736 28.2656C232.074 29.1596 234.096 28.2476 234.801 25.5296L234.982 24.8327C235.307 23.5782 235.143 22.5403 234.488 21.719C233.833 20.8977 232.613 20.248 230.828 19.77Z" fill="black"/>
<path d="M283.341 62.2423L294.702 46.5682L280.454 57.4429L277.287 55.3789L283.151 39.0395L271.489 54.5169L268.986 52.8854L283.182 34.0403L286.982 36.5171L280.511 54.2205L295.879 42.316L299.679 44.7928L285.845 63.8738L283.341 62.2423Z" fill="black"/>
<path d="M315.2 56.9155L299.125 74.1672L296.752 72.235L312.827 54.9833L315.2 56.9155Z" fill="black"/>
<path d="M315.248 89.0015L324.804 70.4385L309.767 83.4851L307.636 81.3398L325.447 65.8868L328.897 69.3601L319.239 87.8209L334.276 74.7743L336.408 76.9196L318.597 92.3726L315.248 89.0015Z" fill="black"/>
<path d="M343.049 109.077C341.037 110.634 339.059 111.346 337.117 111.214C335.193 111.067 333.395 110.052 331.721 108.168C330.064 106.302 329.319 104.471 329.486 102.676C329.67 100.9 330.777 99.2257 332.808 97.6543L345.621 87.7415L347.653 90.0295L334.527 100.185C333.312 101.124 332.645 102.14 332.525 103.232C332.441 104.326 332.885 105.421 333.857 106.516C334.845 107.628 335.915 108.238 337.067 108.346C338.239 108.439 339.432 108.015 340.647 107.075L353.773 96.9203L355.805 99.2083L343.049 109.077Z" fill="black"/>
<path d="M370.211 125.138L367.691 126.293L364.447 120.271L345.534 128.946L344.082 126.252L362.996 117.577L359.752 111.555L362.272 110.4L370.211 125.138Z" fill="black"/>
<path d="M378.839 146.936L376.187 147.742L372.949 138.96L365.82 141.127L368.808 149.234L366.19 150.029L363.202 141.922L355.693 144.205L358.93 152.987L356.278 153.793L351.982 142.14L374.543 135.282L378.839 146.936Z" fill="black"/>
</svg>
